<?xml version="1.0" encoding="utf-8" standalone="no"?>
<!DOCTYPE svg PUBLIC "-//W3C//DTD SVG 1.1//EN"
  "http://www.w3.org/Graphics/SVG/1.1/DTD/svg11.dtd">
<svg xmlns:xlink="http://www.w3.org/1999/xlink" width="371.52pt" height="287.362306pt" viewBox="0 0 371.52 287.362306" xmlns="http://www.w3.org/2000/svg" version="1.1">
 <metadata>
  <rdf:RDF xmlns:dc="http://purl.org/dc/elements/1.1/" xmlns:cc="http://creativecommons.org/ns#" xmlns:rdf="http://www.w3.org/1999/02/22-rdf-syntax-ns#">
   <cc:Work>
    <dc:type rdf:resource="http://purl.org/dc/dcmitype/StillImage"/>
    <dc:date>2023-04-07T21:16:29.670761</dc:date>
    <dc:format>image/svg+xml</dc:format>
    <dc:creator>
     <cc:Agent>
      <dc:title>Matplotlib v3.6.2, https://matplotlib.org/</dc:title>
     </cc:Agent>
    </dc:creator>
   </cc:Work>
  </rdf:RDF>
 </metadata>
 <defs>
  <style type="text/css">*{stroke-linejoin: round; stroke-linecap: butt}</style>
 </defs>
 <g id="figure_1">
  <g id="patch_1">
   <path d="M 0 287.362306 
L 371.52 287.362306 
L 371.52 0 
L 0 0 
z
" style="fill: #ffffff"/>
  </g>
  <g id="axes_1">
   <g id="patch_2">
    <path d="M 185.759993 22.721135 
C 179.089406 22.721135 172.430236 23.27293 165.850628 24.370872 
C 159.27102 25.468814 152.793494 27.109147 146.484338 29.275082 
L 185.759993 143.681154 
L 185.759993 22.721135 
z
" style="fill: #ff9999"/>
   </g>
   <g id="patch_3">
    <path d="M 146.484338 29.275082 
C 132.256031 34.159667 119.063003 41.655953 107.583624 51.378491 
C 96.104244 61.10103 86.538697 72.880274 79.37883 86.11055 
C 72.218963 99.340826 67.589634 113.791418 65.728876 128.719294 
C 63.868119 143.64717 64.808382 158.792011 68.501319 173.375087 
C 72.194256 187.958164 78.575468 201.725169 87.31684 213.968221 
C 96.058211 226.211273 107.007307 236.716871 119.601139 244.944831 
C 132.19497 253.17279 146.213919 258.979628 160.937148 262.066764 
C 175.660378 265.153899 190.831138 265.467498 205.669366 262.991434 
C 220.507594 260.515371 234.754534 255.292824 247.677626 247.592331 
C 260.600718 239.891839 271.974603 229.847684 281.21445 217.976327 
C 290.454297 206.104969 297.398977 192.613427 301.691402 178.195418 
C 305.983828 163.777409 307.549147 148.684361 306.306871 133.692342 
C 305.064595 118.700322 301.036389 104.070768 294.429377 90.555914 
C 287.822365 77.041059 278.751764 64.876582 267.683973 54.687966 
C 256.616183 44.499349 243.744207 36.464267 229.729909 30.995872 
C 215.71561 25.527478 200.803376 22.721133 185.759976 22.721135 
L 185.759993 143.681154 
L 146.484338 29.275082 
z
" style="fill: #66b3ff"/>
   </g>
   <g id="patch_4">
    <path d="M 185.759993 22.721135 
C 179.089406 22.721135 172.430236 23.27293 165.850628 24.370872 
C 159.27102 25.468814 152.793494 27.109147 146.484338 29.275082 
L 185.759993 143.681154 
L 185.759993 22.721135 
z
" style="fill: #ff9999"/>
   </g>
   <g id="patch_5">
    <path d="M 146.484338 29.275082 
C 132.256031 34.159667 119.063003 41.655953 107.583624 51.378491 
C 96.104244 61.10103 86.538697 72.880274 79.37883 86.11055 
C 72.218963 99.340826 67.589634 113.791418 65.728876 128.719294 
C 63.868119 143.64717 64.808382 158.792011 68.501319 173.375087 
C 72.194256 187.958164 78.575468 201.725169 87.31684 213.968221 
C 96.058211 226.211273 107.007307 236.716871 119.601139 244.944831 
C 132.19497 253.17279 146.213919 258.979628 160.937148 262.066764 
C 175.660378 265.153899 190.831138 265.467498 205.669366 262.991434 
C 220.507594 260.515371 234.754534 255.292824 247.677626 247.592331 
C 260.600718 239.891839 271.974603 229.847684 281.21445 217.976327 
C 290.454297 206.104969 297.398977 192.613427 301.691402 178.195418 
C 305.983828 163.777409 307.549147 148.684361 306.306871 133.692342 
C 305.064595 118.700322 301.036389 104.070768 294.429377 90.555914 
C 287.822365 77.041059 278.751764 64.876582 267.683973 54.687966 
C 256.616183 44.499349 243.744207 36.464267 229.729909 30.995872 
C 215.71561 25.527478 200.803376 22.721133 185.759976 22.721135 
L 185.759993 143.681154 
L 146.484338 29.275082 
z
" style="fill: #66b3ff"/>
   </g>
   <g id="patch_6">
    <path d="M 185.759993 22.721135 
C 179.089406 22.721135 172.430236 23.27293 165.850628 24.370872 
C 159.27102 25.468814 152.793494 27.109147 146.484338 29.275082 
L 185.759993 143.681154 
L 185.759993 22.721135 
z
" style="fill: #ff9999"/>
   </g>
   <g id="patch_7">
    <path d="M 146.484338 29.275082 
C 132.256031 34.159667 119.063003 41.655953 107.583624 51.378491 
C 96.104244 61.10103 86.538697 72.880274 79.37883 86.11055 
C 72.218963 99.340826 67.589634 113.791418 65.728876 128.719294 
C 63.868119 143.64717 64.808382 158.792011 68.501319 173.375087 
C 72.194256 187.958164 78.575468 201.725169 87.31684 213.968221 
C 96.058211 226.211273 107.007307 236.716871 119.601139 244.944831 
C 132.19497 253.17279 146.213919 258.979628 160.937148 262.066764 
C 175.660378 265.153899 190.831138 265.467498 205.669366 262.991434 
C 220.507594 260.515371 234.754534 255.292824 247.677626 247.592331 
C 260.600718 239.891839 271.974603 229.847684 281.21445 217.976327 
C 290.454297 206.104969 297.398977 192.613427 301.691402 178.195418 
C 305.983828 163.777409 307.549147 148.684361 306.306871 133.692342 
C 305.064595 118.700322 301.036389 104.070768 294.429377 90.555914 
C 287.822365 77.041059 278.751764 64.876582 267.683973 54.687966 
C 256.616183 44.499349 243.744207 36.464267 229.729909 30.995872 
C 215.71561 25.527478 200.803376 22.721133 185.759976 22.721135 
L 185.759993 143.681154 
L 146.484338 29.275082 
z
" style="fill: #66b3ff"/>
   </g>
   <g id="patch_8">
    <path d="M 185.759993 22.721135 
C 179.089406 22.721135 172.430236 23.27293 165.850628 24.370872 
C 159.27102 25.468814 152.793494 27.109147 146.484338 29.275082 
L 185.759993 143.681154 
L 185.759993 22.721135 
z
" style="fill: #ff9999"/>
   </g>
   <g id="patch_9">
    <path d="M 146.484338 29.275082 
C 132.256031 34.159667 119.063003 41.655953 107.583624 51.378491 
C 96.104244 61.10103 86.538697 72.880274 79.37883 86.11055 
C 72.218963 99.340826 67.589634 113.791418 65.728876 128.719294 
C 63.868119 143.64717 64.808382 158.792011 68.501319 173.375087 
C 72.194256 187.958164 78.575468 201.725169 87.31684 213.968221 
C 96.058211 226.211273 107.007307 236.716871 119.601139 244.944831 
C 132.19497 253.17279 146.213919 258.979628 160.937148 262.066764 
C 175.660378 265.153899 190.831138 265.467498 205.669366 262.991434 
C 220.507594 260.515371 234.754534 255.292824 247.677626 247.592331 
C 260.600718 239.891839 271.974603 229.847684 281.21445 217.976327 
C 290.454297 206.104969 297.398977 192.613427 301.691402 178.195418 
C 305.983828 163.777409 307.549147 148.684361 306.306871 133.692342 
C 305.064595 118.700322 301.036389 104.070768 294.429377 90.555914 
C 287.822365 77.041059 278.751764 64.876582 267.683973 54.687966 
C 256.616183 44.499349 243.744207 36.464267 229.729909 30.995872 
C 215.71561 25.527478 200.803376 22.721133 185.759976 22.721135 
L 185.759993 143.681154 
L 146.484338 29.275082 
z
" style="fill: #66b3ff"/>
   </g>
   <g id="patch_10">
    <path d="M 185.759993 22.721135 
C 179.089406 22.721135 172.430236 23.27293 165.850628 24.370872 
C 159.27102 25.468814 152.793494 27.109147 146.484338 29.275082 
L 185.759993 143.681154 
L 185.759993 22.721135 
z
" style="fill: #ff9999"/>
   </g>
   <g id="patch_11">
    <path d="M 146.484338 29.275082 
C 132.256031 34.159667 119.063003 41.655953 107.583624 51.378491 
C 96.104244 61.10103 86.538697 72.880274 79.37883 86.11055 
C 72.218963 99.340826 67.589634 113.791418 65.728876 128.719294 
C 63.868119 143.64717 64.808382 158.792011 68.501319 173.375087 
C 72.194256 187.958164 78.575468 201.725169 87.31684 213.968221 
C 96.058211 226.211273 107.007307 236.716871 119.601139 244.944831 
C 132.19497 253.17279 146.213919 258.979628 160.937148 262.066764 
C 175.660378 265.153899 190.831138 265.467498 205.669366 262.991434 
C 220.507594 260.515371 234.754534 255.292824 247.677626 247.592331 
C 260.600718 239.891839 271.974603 229.847684 281.21445 217.976327 
C 290.454297 206.104969 297.398977 192.613427 301.691402 178.195418 
C 305.983828 163.777409 307.549147 148.684361 306.306871 133.692342 
C 305.064595 118.700322 301.036389 104.070768 294.429377 90.555914 
C 287.822365 77.041059 278.751764 64.876582 267.683973 54.687966 
C 256.616183 44.499349 243.744207 36.464267 229.729909 30.995872 
C 215.71561 25.527478 200.803376 22.721133 185.759976 22.721135 
L 185.759993 143.681154 
L 146.484338 29.275082 
z
" style="fill: #66b3ff"/>
   </g>
   <g id="matplotlib.axis_1"/>
   <g id="matplotlib.axis_2"/>
   <g id="text_1">
    <!-- 异常商品 -->
    <g transform="translate(123.859691 15.19375) scale(0.1 -0.1)">
     <defs>
      <path id="MicrosoftYaHei-5f02" d="M 1731 2547 
L 5050 2547 
Q 5531 2547 5619 2878 
Q 5694 3141 5756 3572 
Q 5988 3472 6250 3378 
Q 6131 2866 6075 2684 
Q 5913 2109 5163 2109 
L 1619 2109 
Q 819 2109 819 2922 
L 819 5016 
L 5338 5016 
L 5338 3116 
L 4856 3116 
L 4856 3328 
L 1300 3328 
L 1300 2972 
Q 1300 2547 1731 2547 
z
M 4256 1922 
L 4750 1922 
L 4750 1178 
L 6250 1178 
L 6250 741 
L 4750 741 
L 4750 -841 
L 4256 -841 
L 4256 741 
L 2125 741 
Q 2050 -322 663 -866 
Q 513 -672 319 -441 
Q 1538 -22 1622 741 
L 144 741 
L 144 1178 
L 1678 1178 
Q 1703 1500 1700 1928 
L 2194 1928 
Q 2194 1509 2172 1178 
L 4256 1178 
L 4256 1922 
z
M 1300 4584 
L 1300 3759 
L 4856 3759 
L 4856 4584 
L 1300 4584 
z
" transform="scale(0.015625)"/>
      <path id="MicrosoftYaHei-5e38" d="M 1213 -372 
L 725 -372 
L 725 1409 
L 2963 1409 
L 2963 1997 
L 1738 1997 
L 1738 1772 
L 1263 1772 
L 1263 3366 
L 5175 3366 
L 5175 1772 
L 4700 1772 
L 4700 1997 
L 3463 1997 
L 3463 1409 
L 5756 1409 
L 5756 341 
Q 5756 -378 5000 -378 
Q 4681 -378 4269 -372 
Q 4231 -153 4175 109 
Q 4556 72 4881 72 
Q 5269 72 5269 409 
L 5269 997 
L 3463 997 
L 3463 -853 
L 2963 -853 
L 2963 997 
L 1213 997 
L 1213 -372 
z
M 356 4216 
L 1828 4216 
Q 1409 4572 956 4903 
L 1244 5228 
Q 1713 4916 2188 4572 
L 1853 4216 
L 2956 4216 
L 2956 5309 
L 3456 5309 
L 3456 4216 
L 4488 4216 
L 4238 4528 
Q 4750 4866 5213 5247 
L 5575 4878 
Q 5128 4547 4631 4216 
L 6056 4216 
L 6056 3109 
L 5569 3109 
L 5569 3791 
L 844 3791 
L 844 3109 
L 356 3109 
L 356 4216 
z
M 4700 2966 
L 1738 2966 
L 1738 2397 
L 4700 2397 
L 4700 2966 
z
" transform="scale(0.015625)"/>
      <path id="MicrosoftYaHei-5546" d="M 600 3309 
L 2119 3309 
Q 1903 3625 1650 3934 
L 2031 4191 
Q 2331 3841 2575 3541 
L 2238 3309 
L 3656 3309 
Q 3972 3716 4238 4166 
L 4713 3891 
Q 4416 3538 4213 3309 
L 5769 3309 
L 5769 34 
Q 5769 -753 5050 -759 
Q 4663 -766 4175 -753 
Q 4125 -391 4081 -228 
Q 4575 -278 4894 -278 
Q 5300 -278 5300 172 
L 5300 2878 
L 1069 2878 
L 1069 -834 
L 600 -834 
L 600 3309 
z
M 1950 -216 
L 1950 1797 
L 4456 1797 
L 4456 116 
L 2400 116 
L 2400 -216 
L 1950 -216 
z
M 144 4647 
L 2997 4647 
Q 2878 4869 2706 5141 
L 3188 5359 
Q 3375 5038 3581 4647 
L 6275 4647 
L 6275 4203 
L 144 4203 
L 144 4647 
z
M 4006 516 
L 4006 1397 
L 2400 1397 
L 2400 516 
L 4006 516 
z
M 2431 2809 
L 2769 2484 
Q 2038 1859 1400 1384 
Q 1213 1641 1106 1753 
Q 1794 2209 2431 2809 
z
M 3531 2466 
L 3806 2809 
Q 4731 2228 5206 1878 
L 4894 1484 
Q 4275 1984 3531 2466 
z
" transform="scale(0.015625)"/>
      <path id="MicrosoftYaHei-54c1" d="M 1044 5047 
L 5356 5047 
L 5356 2572 
L 4856 2572 
L 4856 2772 
L 1544 2772 
L 1544 2572 
L 1044 2572 
L 1044 5047 
z
M 3588 2059 
L 5975 2059 
L 5975 -828 
L 5500 -828 
L 5500 -403 
L 4063 -403 
L 4063 -828 
L 3588 -828 
L 3588 2059 
z
M 431 2059 
L 2813 2059 
L 2813 -828 
L 2338 -828 
L 2338 -409 
L 906 -409 
L 906 -828 
L 431 -828 
L 431 2059 
z
M 4856 4609 
L 1544 4609 
L 1544 3209 
L 4856 3209 
L 4856 4609 
z
M 5500 1622 
L 4063 1622 
L 4063 3 
L 5500 3 
L 5500 1622 
z
M 2338 1622 
L 906 1622 
L 906 16 
L 2338 16 
L 2338 1622 
z
" transform="scale(0.015625)"/>
     </defs>
     <use xlink:href="#MicrosoftYaHei-5f02"/>
     <use xlink:href="#MicrosoftYaHei-5e38" x="100"/>
     <use xlink:href="#MicrosoftYaHei-5546" x="200"/>
     <use xlink:href="#MicrosoftYaHei-54c1" x="300"/>
    </g>
   </g>
   <g id="text_2">
    <!-- 5.3% -->
    <g transform="translate(162.297967 74.848891) scale(0.1 -0.1)">
     <defs>
      <path id="MicrosoftYaHei-35" d="M 3294 1494 
Q 3294 784 2823 350 
Q 2353 -84 1559 -84 
Q 878 -84 544 119 
L 544 744 
Q 1034 425 1544 425 
Q 2050 425 2361 704 
Q 2672 984 2672 1447 
Q 2672 1909 2348 2167 
Q 2025 2425 1434 2425 
Q 978 2425 613 2384 
L 791 4841 
L 3053 4841 
L 3053 4303 
L 1306 4303 
L 1206 2931 
L 1647 2950 
Q 2416 2950 2855 2567 
Q 3294 2184 3294 1494 
z
" transform="scale(0.015625)"/>
      <path id="MicrosoftYaHei-2e" d="M 372 322 
Q 372 491 487 606 
Q 603 722 775 722 
Q 950 722 1065 605 
Q 1181 488 1181 322 
Q 1181 159 1065 42 
Q 950 -75 772 -75 
Q 600 -75 486 42 
Q 372 159 372 322 
z
" transform="scale(0.015625)"/>
      <path id="MicrosoftYaHei-33" d="M 447 809 
Q 944 425 1569 425 
Q 2069 425 2361 670 
Q 2653 916 2653 1328 
Q 2653 2247 1338 2247 
L 934 2247 
L 934 2753 
L 1319 2753 
Q 2484 2753 2484 3616 
Q 2484 4413 1594 4413 
Q 1084 4413 634 4069 
L 634 4647 
Q 1109 4922 1744 4922 
Q 2363 4922 2738 4598 
Q 3113 4275 3113 3759 
Q 3113 2809 2144 2538 
L 2144 2525 
Q 2669 2469 2973 2155 
Q 3278 1841 3278 1372 
Q 3278 719 2808 319 
Q 2338 -81 1556 -81 
Q 869 -81 447 175 
L 447 809 
z
" transform="scale(0.015625)"/>
      <path id="MicrosoftYaHei-25" d="M 272 3619 
Q 272 4213 589 4563 
Q 906 4913 1444 4913 
Q 1959 4913 2248 4591 
Q 2538 4269 2538 3694 
Q 2538 3122 2219 2765 
Q 1900 2409 1372 2409 
Q 872 2409 572 2740 
Q 272 3072 272 3619 
z
M 753 3650 
Q 753 3247 928 3028 
Q 1103 2809 1406 2809 
Q 1719 2809 1889 3036 
Q 2059 3263 2059 3675 
Q 2059 4078 1892 4298 
Q 1725 4519 1422 4519 
Q 1113 4519 933 4289 
Q 753 4059 753 3650 
z
M 4647 4841 
L 1538 -31 
L 1016 -31 
L 4125 4841 
L 4647 4841 
z
M 3172 1134 
Q 3172 1728 3489 2083 
Q 3806 2438 4341 2438 
Q 4853 2438 5143 2114 
Q 5434 1791 5434 1203 
Q 5434 634 5112 279 
Q 4791 -75 4272 -75 
Q 3769 -75 3470 261 
Q 3172 597 3172 1134 
z
M 3650 1163 
Q 3650 769 3825 548 
Q 4000 328 4303 328 
Q 4616 328 4786 556 
Q 4956 784 4956 1194 
Q 4956 1600 4786 1815 
Q 4616 2031 4319 2031 
Q 4000 2031 3825 1801 
Q 3650 1572 3650 1163 
z
" transform="scale(0.015625)"/>
     </defs>
     <use xlink:href="#MicrosoftYaHei-35"/>
     <use xlink:href="#MicrosoftYaHei-2e" x="58.642578"/>
     <use xlink:href="#MicrosoftYaHei-33" x="82.714844"/>
     <use xlink:href="#MicrosoftYaHei-25" x="141.357422"/>
    </g>
   </g>
   <g id="text_3">
    <!-- 正常商品 -->
    <g transform="translate(207.660303 277.676369) scale(0.1 -0.1)">
     <defs>
      <path id="MicrosoftYaHei-6b63" d="M 88 66 
L 1106 66 
L 1106 3416 
L 1644 3416 
L 1644 66 
L 3231 66 
L 3231 4309 
L 375 4309 
L 375 4797 
L 6063 4797 
L 6063 4309 
L 3769 4309 
L 3769 2672 
L 5850 2672 
L 5850 2191 
L 3769 2191 
L 3769 66 
L 6313 66 
L 6313 -422 
L 88 -422 
L 88 66 
z
" transform="scale(0.015625)"/>
     </defs>
     <use xlink:href="#MicrosoftYaHei-6b63"/>
     <use xlink:href="#MicrosoftYaHei-5e38" x="100"/>
     <use xlink:href="#MicrosoftYaHei-5546" x="200"/>
     <use xlink:href="#MicrosoftYaHei-54c1" x="300"/>
    </g>
   </g>
   <g id="text_4">
    <!-- 94.7% -->
    <g transform="translate(183.257179 218.021228) scale(0.1 -0.1)">
     <defs>
      <path id="MicrosoftYaHei-39" d="M 578 656 
Q 978 425 1441 425 
Q 2091 425 2448 937 
Q 2806 1450 2806 2394 
Q 2800 2388 2794 2394 
Q 2475 1788 1722 1788 
Q 1113 1788 713 2206 
Q 313 2625 313 3294 
Q 313 4006 750 4464 
Q 1188 4922 1884 4922 
Q 2606 4922 3012 4355 
Q 3419 3788 3419 2703 
Q 3419 1363 2894 641 
Q 2369 -81 1441 -81 
Q 931 -81 578 84 
L 578 656 
z
M 931 3372 
Q 931 2884 1181 2598 
Q 1431 2313 1872 2313 
Q 2253 2313 2512 2573 
Q 2772 2834 2772 3206 
Q 2772 3728 2514 4070 
Q 2256 4413 1834 4413 
Q 1444 4413 1187 4116 
Q 931 3819 931 3372 
z
" transform="scale(0.015625)"/>
      <path id="MicrosoftYaHei-34" d="M 2906 4841 
L 2906 1644 
L 3631 1644 
L 3631 1138 
L 2906 1138 
L 2906 0 
L 2313 0 
L 2313 1138 
L 53 1138 
L 53 1616 
Q 656 2294 1265 3178 
Q 1875 4063 2272 4841 
L 2906 4841 
z
M 741 1644 
L 2313 1644 
L 2313 3950 
Q 1988 3366 1616 2817 
Q 1244 2269 741 1644 
z
" transform="scale(0.015625)"/>
      <path id="MicrosoftYaHei-37" d="M 3422 4463 
Q 2659 3131 2223 1998 
Q 1788 866 1684 0 
L 1047 0 
Q 1163 853 1594 1947 
Q 2025 3041 2747 4300 
L 347 4300 
L 347 4841 
L 3422 4841 
L 3422 4463 
z
" transform="scale(0.015625)"/>
     </defs>
     <use xlink:href="#MicrosoftYaHei-39"/>
     <use xlink:href="#MicrosoftYaHei-34" x="58.642578"/>
     <use xlink:href="#MicrosoftYaHei-2e" x="117.285156"/>
     <use xlink:href="#MicrosoftYaHei-37" x="141.357422"/>
     <use xlink:href="#MicrosoftYaHei-25" x="200"/>
    </g>
   </g>
   <g id="text_5">
    <!-- 异常商品 -->
    <g transform="translate(123.859691 15.19375) scale(0.1 -0.1)">
     <use xlink:href="#MicrosoftYaHei-5f02"/>
     <use xlink:href="#MicrosoftYaHei-5e38" x="100"/>
     <use xlink:href="#MicrosoftYaHei-5546" x="200"/>
     <use xlink:href="#MicrosoftYaHei-54c1" x="300"/>
    </g>
   </g>
   <g id="text_6">
    <!-- 5.3% -->
    <g transform="translate(162.297967 74.848891) scale(0.1 -0.1)">
     <use xlink:href="#MicrosoftYaHei-35"/>
     <use xlink:href="#MicrosoftYaHei-2e" x="58.642578"/>
     <use xlink:href="#MicrosoftYaHei-33" x="82.714844"/>
     <use xlink:href="#MicrosoftYaHei-25" x="141.357422"/>
    </g>
   </g>
   <g id="text_7">
    <!-- 正常商品 -->
    <g transform="translate(207.660303 277.676369) scale(0.1 -0.1)">
     <use xlink:href="#MicrosoftYaHei-6b63"/>
     <use xlink:href="#MicrosoftYaHei-5e38" x="100"/>
     <use xlink:href="#MicrosoftYaHei-5546" x="200"/>
     <use xlink:href="#MicrosoftYaHei-54c1" x="300"/>
    </g>
   </g>
   <g id="text_8">
    <!-- 94.7% -->
    <g transform="translate(183.257179 218.021228) scale(0.1 -0.1)">
     <use xlink:href="#MicrosoftYaHei-39"/>
     <use xlink:href="#MicrosoftYaHei-34" x="58.642578"/>
     <use xlink:href="#MicrosoftYaHei-2e" x="117.285156"/>
     <use xlink:href="#MicrosoftYaHei-37" x="141.357422"/>
     <use xlink:href="#MicrosoftYaHei-25" x="200"/>
    </g>
   </g>
   <g id="text_9">
    <!-- 异常商品 -->
    <g transform="translate(123.859691 15.19375) scale(0.1 -0.1)">
     <use xlink:href="#MicrosoftYaHei-5f02"/>
     <use xlink:href="#MicrosoftYaHei-5e38" x="100"/>
     <use xlink:href="#MicrosoftYaHei-5546" x="200"/>
     <use xlink:href="#MicrosoftYaHei-54c1" x="300"/>
    </g>
   </g>
   <g id="text_10">
    <!-- 5.3% -->
    <g transform="translate(162.297967 74.848891) scale(0.1 -0.1)">
     <use xlink:href="#MicrosoftYaHei-35"/>
     <use xlink:href="#MicrosoftYaHei-2e" x="58.642578"/>
     <use xlink:href="#MicrosoftYaHei-33" x="82.714844"/>
     <use xlink:href="#MicrosoftYaHei-25" x="141.357422"/>
    </g>
   </g>
   <g id="text_11">
    <!-- 正常商品 -->
    <g transform="translate(207.660303 277.676369) scale(0.1 -0.1)">
     <use xlink:href="#MicrosoftYaHei-6b63"/>
     <use xlink:href="#MicrosoftYaHei-5e38" x="100"/>
     <use xlink:href="#MicrosoftYaHei-5546" x="200"/>
     <use xlink:href="#MicrosoftYaHei-54c1" x="300"/>
    </g>
   </g>
   <g id="text_12">
    <!-- 94.7% -->
    <g transform="translate(183.257179 218.021228) scale(0.1 -0.1)">
     <use xlink:href="#MicrosoftYaHei-39"/>
     <use xlink:href="#MicrosoftYaHei-34" x="58.642578"/>
     <use xlink:href="#MicrosoftYaHei-2e" x="117.285156"/>
     <use xlink:href="#MicrosoftYaHei-37" x="141.357422"/>
     <use xlink:href="#MicrosoftYaHei-25" x="200"/>
    </g>
   </g>
   <g id="text_13">
    <!-- 异常商品 -->
    <g transform="translate(123.859691 15.19375) scale(0.1 -0.1)">
     <use xlink:href="#MicrosoftYaHei-5f02"/>
     <use xlink:href="#MicrosoftYaHei-5e38" x="100"/>
     <use xlink:href="#MicrosoftYaHei-5546" x="200"/>
     <use xlink:href="#MicrosoftYaHei-54c1" x="300"/>
    </g>
   </g>
   <g id="text_14">
    <!-- 5.3% -->
    <g transform="translate(162.297967 74.848891) scale(0.1 -0.1)">
     <use xlink:href="#MicrosoftYaHei-35"/>
     <use xlink:href="#MicrosoftYaHei-2e" x="58.642578"/>
     <use xlink:href="#MicrosoftYaHei-33" x="82.714844"/>
     <use xlink:href="#MicrosoftYaHei-25" x="141.357422"/>
    </g>
   </g>
   <g id="text_15">
    <!-- 正常商品 -->
    <g transform="translate(207.660303 277.676369) scale(0.1 -0.1)">
     <use xlink:href="#MicrosoftYaHei-6b63"/>
     <use xlink:href="#MicrosoftYaHei-5e38" x="100"/>
     <use xlink:href="#MicrosoftYaHei-5546" x="200"/>
     <use xlink:href="#MicrosoftYaHei-54c1" x="300"/>
    </g>
   </g>
   <g id="text_16">
    <!-- 94.7% -->
    <g transform="translate(183.257179 218.021228) scale(0.1 -0.1)">
     <use xlink:href="#MicrosoftYaHei-39"/>
     <use xlink:href="#MicrosoftYaHei-34" x="58.642578"/>
     <use xlink:href="#MicrosoftYaHei-2e" x="117.285156"/>
     <use xlink:href="#MicrosoftYaHei-37" x="141.357422"/>
     <use xlink:href="#MicrosoftYaHei-25" x="200"/>
    </g>
   </g>
   <g id="text_17">
    <!-- 异常商品 -->
    <g transform="translate(123.859691 15.19375) scale(0.1 -0.1)">
     <use xlink:href="#MicrosoftYaHei-5f02"/>
     <use xlink:href="#MicrosoftYaHei-5e38" x="100"/>
     <use xlink:href="#MicrosoftYaHei-5546" x="200"/>
     <use xlink:href="#MicrosoftYaHei-54c1" x="300"/>
    </g>
   </g>
   <g id="text_18">
    <!-- 5.3% -->
    <g transform="translate(162.297967 74.848891) scale(0.1 -0.1)">
     <use xlink:href="#MicrosoftYaHei-35"/>
     <use xlink:href="#MicrosoftYaHei-2e" x="58.642578"/>
     <use xlink:href="#MicrosoftYaHei-33" x="82.714844"/>
     <use xlink:href="#MicrosoftYaHei-25" x="141.357422"/>
    </g>
   </g>
   <g id="text_19">
    <!-- 正常商品 -->
    <g transform="translate(207.660303 277.676369) scale(0.1 -0.1)">
     <use xlink:href="#MicrosoftYaHei-6b63"/>
     <use xlink:href="#MicrosoftYaHei-5e38" x="100"/>
     <use xlink:href="#MicrosoftYaHei-5546" x="200"/>
     <use xlink:href="#MicrosoftYaHei-54c1" x="300"/>
    </g>
   </g>
   <g id="text_20">
    <!-- 94.7% -->
    <g transform="translate(183.257179 218.021228) scale(0.1 -0.1)">
     <use xlink:href="#MicrosoftYaHei-39"/>
     <use xlink:href="#MicrosoftYaHei-34" x="58.642578"/>
     <use xlink:href="#MicrosoftYaHei-2e" x="117.285156"/>
     <use xlink:href="#MicrosoftYaHei-37" x="141.357422"/>
     <use xlink:href="#MicrosoftYaHei-25" x="200"/>
    </g>
   </g>
  </g>
 </g>
</svg>
